PathFileType	4	(X/Y/Z)	Patient4_TMGait_0pt7_02_right_24.trc.trc
DataRate	CameraRate	NumFrames	NumMarkers	Units	OrigDataRate	OrigDataStartFrame	OrigNumFrames
86.956521739130	86.956521739130	4	33	mm	86.956521739130	18	       141
Frame#	Time	Sacral			L.Shoulder			Chest			R.Shoulder			Neck			R.ASIS			L.ASIS			R.Thigh.Superior			R.Thigh.Lateral			R.Thigh.Inferior			R.Patella			L.Thigh.Superior			L.Thigh.Lateral			L.Thigh.Inferior			L.Patella			L.Shank.Superior			L.Shank.Lateral			L.Shank.Inferior			R.Shank.Superior			R.Shank.Lateral			R.Shank.Inferior			R.Heel			R.Midfoot.Superior			R.Midfoot.Lateral			R.Toe			L.Heel			L.Midfoot.Lateral			L.Midfoot.Superior			L.Toe			L.Elbow			L.Wrist			R.Elbow			R.Wrist			
		X1	Y1	Z1	X2	Y2	Z2	X3	Y3	Z3	X4	Y4	Z4	X5	Y5	Z5	X6	Y6	Z6	X7	Y7	Z7	X8	Y8	Z8	X9	Y9	Z9	X10	Y10	Z10	X11	Y11	Z11	X12	Y12	Z12	X13	Y13	Z13	X14	Y14	Z14	X15	Y15	Z15	X16	Y16	Z16	X17	Y17	Z17	X18	Y18	Z18	X19	Y19	Z19	X20	Y20	Z20	X21	Y21	Z21	X22	Y22	Z22	X23	Y23	Z23	X24	Y24	Z24	X25	Y25	Z25	X26	Y26	Z26	X27	Y27	Z27	X28	Y28	Z28	X29	Y29	Z29	X30	Y30	Z30	X31	Y31	Z31	X32	Y32	Z32	X33	Y33	Z33	

18	26.925500000000	839.479242812185	1009.300318202528	432.916300516182	1046.508787487417	1435.486816639470	268.042919700948	1135.751761879466	1358.993069818623	434.868401227900	1041.671278864121	1434.223825828901	602.775232855211	1035.369264263008	1492.372001913479	422.749864447266	1055.772567391080	944.760661558923	568.257527452072	1062.558891382505	957.604374318468	292.257569401808	1135.279758182745	779.725629419199	542.761973431138	1098.223712861080	657.790022369604	620.516512979921	1188.417878350559	621.786040843732	541.353710220428	1225.940662304703	536.960172682060	562.355966599698	1066.836846835516	730.567915972342	328.269501392082	955.037482979280	634.606556617399	260.187225947267	1011.482818976627	542.227299067419	329.916565420889	996.058115160054	476.590859357588	340.128856835808	964.545474727849	409.576183341455	330.765561566644	865.446843868543	304.153619856704	279.399353152223	900.888868601760	189.721401055312	354.043391090742	1205.234303917364	448.076796107950	574.519857330173	1147.729506703101	338.952824395741	642.834239675084	1212.094266978792	248.048829386132	592.968885105653	1111.348150294504	63.551298244305	572.251448708212	1277.818836634353	132.920797707251	606.963299079860	1198.675661465303	57.042962595300	641.062095751798	1402.050383545634	91.168649059515	626.789778568075	760.481292358223	39.957602313073	395.114503213596	834.767573320877	36.153657347166	315.229631200350	918.514405721369	95.780304849304	342.888390255804	1046.808663114358	40.228345822647	314.685730480732	1156.444423479900	1145.086903948849	92.264689280487	1399.773466330497	1118.558041854292	169.264812158483	921.547869699130	1108.229438217252	718.526737490518	899.101586502160	847.612123072071	729.329681967525	
19	26.937000000000	840.870319919825	1007.238802039384	435.333704104871	1045.287988879140	1433.936108033773	269.394107523147	1135.549232499012	1357.835156232936	435.811270372460	1042.020332065059	1433.057495409270	604.004585583903	1034.698795302631	1490.833720314987	423.902060751814	1057.647061876326	942.677727079251	569.499192442087	1063.218766033305	956.347763267183	293.569139550884	1134.788165498979	775.130595492873	544.406838759064	1095.409478644969	653.610100357292	622.037353859811	1185.199377184128	616.714198522944	542.888696113362	1221.549962126100	533.028944132117	563.368635083227	1064.798903321068	728.565422893253	328.850139626680	951.330184673609	634.035778851030	260.845308180428	1006.648312883887	540.868620867577	330.169947314688	990.494022657478	475.455037440772	340.242109454594	958.490964987022	408.803969363491	330.947052517028	858.492862133862	304.183085685299	279.583440542158	893.327123532624	189.397750219745	354.031924746185	1202.696199521720	444.214828247324	575.426012776488	1146.884147089379	333.489915821491	642.520466615975	1213.767059715178	244.244674164996	592.645748291633	1117.164820557608	57.964371932517	569.989939849415	1282.083199932181	129.979634078096	606.067944411687	1204.063115433866	52.885063279806	639.436070886903	1407.028119012299	90.431102959218	626.838147462436	752.329774596734	39.909111102587	395.122572897958	826.622711094624	36.093037441135	315.248814877068	910.352850307735	95.719679202640	342.881861226367	1038.659750351887	40.173710588060	314.677439083994	1159.938492082498	1147.147559637028	92.535185578029	1402.494203928379	1128.097108448665	172.814770425734	914.081488088730	1111.291805753439	720.098358211352	885.609268722270	851.473241247500	729.634855294697	
20	26.948500000000	842.379559143121	1005.003745953641	438.006888623840	1043.945757913137	1432.197266326598	270.846992529544	1135.355997866534	1356.626715361797	436.863460917919	1042.332970278142	1431.830339866634	605.352879949521	1033.956810153440	1489.160813922654	425.152264316501	1059.730173214973	940.421790494306	570.911315541316	1063.971479623992	954.952442309424	295.150672181456	1134.787983592496	770.611592149715	546.206033060406	1092.927335189314	649.375345847568	623.297781958125	1182.554158582346	611.813113254163	544.415663812549	1217.476587779227	528.854288982956	564.256953661065	1063.132092516423	726.511459192226	329.495773636896	948.032091736154	633.370895186377	261.689323539003	1002.358721398528	539.439115574245	330.554971617450	985.518584496661	474.138977988236	340.513449460598	952.906471963200	407.877222936324	331.262069495052	851.848561214669	304.225044965939	279.865906201264	885.907670751284	189.015663918947	354.060956548613	1199.901828113370	439.980625653018	576.066923251532	1144.780439953758	328.121291919671	641.629454434896	1213.464826001729	240.127491800792	591.832124623385	1119.429028518798	53.410345535559	567.020359867408	1283.307939700843	126.376720889508	604.644954972691	1205.649616859604	49.047046899735	637.274249635320	1408.438812786500	87.795488678289	626.542143732882	744.175610423042	39.881088358186	395.105893951836	818.491091420236	36.033478387594	315.259965140744	902.209987941361	95.661483521355	342.872489681310	1030.532097052002	40.107813018369	314.651869275753	1162.821925366437	1148.788079259897	92.959510867696	1404.416345380056	1136.611796086232	176.240705012780	907.122704887851	1114.299646894008	721.683101934478	873.267690040375	855.234440849131	729.983470382103	
21	26.960000000000	843.950868607593	1002.676971334711	440.900698157523	1042.537849443471	1430.309380223394	272.400075740695	1135.192150793796	1355.392191193722	438.037597951244	1042.619006330680	1430.564891338360	606.821209275927	1033.192809308953	1487.404498273612	426.514183178614	1061.961244505854	938.068521412033	572.501886203644	1064.800328305893	953.447728053703	296.981042564252	1135.285416711183	766.276481667799	548.162366039055	1090.773243592214	645.182222759121	624.251661697440	1180.523983762806	607.211411244774	545.912029816867	1213.812482195651	524.573954206826	564.930789493568	1061.879363074444	724.454673207828	330.222428324929	945.212718206442	632.624518163894	262.743517055157	998.713671936256	537.951967168032	331.090528266503	981.246768020671	472.634678749793	340.963868294490	947.884487212990	406.793721962568	331.729680914381	845.592469099596	304.300149999717	280.264767798461	878.671269069298	188.589201489666	354.137361581306	1196.989194960762	435.518659346881	576.380569560355	1141.717089223153	322.942314238878	640.274881738644	1211.464203708254	235.770744040007	590.567712198282	1118.443983669836	49.786746309903	563.639174370491	1281.847536562348	122.242855499387	602.763447681704	1203.851759195318	45.593473923310	634.808627362100	1406.742755220988	83.517734114405	625.892060385383	736.023620890333	39.925532823495	395.053495630016	810.380637240416	35.994811831328	315.258945423669	894.109969092685	95.613426548670	342.851474186751	1022.433692436140	40.027480690550	314.605824862929	1165.074975562107	1149.937521316845	93.553796142049	1405.595625831550	1144.044704916534	179.513334720793	900.816134716375	1117.135331771538	723.255831895898	862.082708354691	858.764275560206	730.461517095410	
